<svg viewBox="0 0 56 44" fill="none"
  xmlns="http://www.w3.org/2000/svg">
  <path opacity="0.2" d="M22.0389 0.349998C24.0389 0.849998 25.3389 2.45 25.9389 5.14999C23.0389 6.74999 20.0889 9.15 17.0889 12.35C14.0889 15.55 11.9889 19.05 10.7889 22.85H11.2389C15.0389 22.85 17.9889 23.85 20.0889 25.85C22.2889 27.75 23.3889 30.25 23.3889 33.35C23.3889 36.25 22.2889 38.7 20.0889 40.7C17.9889 42.7 15.4389 43.7 12.4389 43.7C8.83887 43.7 5.98887 42.45 3.88887 39.95C1.78887 37.35 0.738867 34.25 0.738867 30.65C0.738867 24.55 2.68887 19.1 6.58887 14.3C10.4889 9.49999 15.6389 4.84999 22.0389 0.349998ZM52.0389 0.349998C54.0389 0.849998 55.3389 2.45 55.9389 5.14999C53.0389 6.74999 50.0889 9.15 47.0889 12.35C44.0889 15.55 41.9889 19.05 40.7889 22.85H41.2389C45.0389 22.85 47.9889 23.85 50.0889 25.85C52.2889 27.75 53.3889 30.25 53.3889 33.35C53.3889 36.25 52.2889 38.7 50.0889 40.7C47.9889 42.7 45.4389 43.7 42.4389 43.7C38.8389 43.7 35.9889 42.45 33.8889 39.95C31.7889 37.35 30.7389 34.25 30.7389 30.65C30.7389 24.55 32.6889 19.1 36.5889 14.3C40.4889 9.49999 45.6389 4.84999 52.0389 0.349998Z" fill="#3E3E3E" fill-opacity="0.8"/>
</svg>
