<svg width="24" height="22" viewBox="0 0 24 22" fill="none" xmlns="http://www.w3.org/2000/svg">
<path fill-rule="evenodd" clip-rule="evenodd" d="M5.40356 7.82669C6.37299 9.94038 6.07688 12.1324 4.74225 12.7241C3.40759 13.3158 1.53979 12.0826 0.570432 9.9693C-0.399006 7.85603 -0.102935 5.66377 1.23173 5.07215C2.5664 4.4807 4.43412 5.71401 5.40356 7.82669Z" fill="#FDF3EC"/>
<path fill-rule="evenodd" clip-rule="evenodd" d="M18.5964 7.82669C17.627 9.94038 17.9231 12.1324 19.2578 12.7241C20.5925 13.3158 22.4601 12.0826 23.4297 9.9693C24.399 7.85603 24.1029 5.66377 22.7683 5.07215C21.4337 4.4807 19.5659 5.71401 18.5964 7.82669Z" fill="#FDF3EC"/>
<path fill-rule="evenodd" clip-rule="evenodd" d="M11.0766 3.59046C11.5735 5.85619 10.8161 7.93859 9.38484 8.24197C7.9537 8.54494 6.39064 6.95383 5.89379 4.68831C5.39694 2.42263 6.15439 0.340151 7.5856 0.0370564C9.0168 -0.266163 10.5798 1.32474 11.0766 3.59046Z" fill="#FDF3EC"/>
<path fill-rule="evenodd" clip-rule="evenodd" d="M12.8877 3.5922C12.3912 5.85792 13.1481 7.94056 14.5792 8.24353C16.0105 8.54692 17.5734 6.95579 18.0702 4.69011C18.5671 2.42436 17.8098 0.341847 16.3785 0.0387486C14.9473 -0.264392 13.3843 1.32644 12.8877 3.5922Z" fill="#FDF3EC"/>
<path fill-rule="evenodd" clip-rule="evenodd" d="M9.28523 11.1641C8.93593 11.7571 7.31727 13.7199 6.1977 14.3895C5.07822 15.0592 3.69099 16.0397 3.92379 18.2913C4.15646 20.5432 6.50652 21.5071 8.05359 21.4216C9.60074 21.3365 12.5176 21.0566 14.6002 21.3403C16.6826 21.624 19.311 21.409 19.9265 19.253C20.542 17.097 19.1654 15.7234 18.0912 14.9439C17.0171 14.1649 15.2233 11.8346 14.6706 10.7648C14.118 9.69537 11.3054 7.73675 9.28523 11.1641Z" fill="#FDF3EC"/>
</svg>
