<svg width="112" height="207" viewBox="0 0 112 207" fill="none" xmlns="http://www.w3.org/2000/svg">
<path fill-rule="evenodd" clip-rule="evenodd" d="M27.54 29.5512C22.9961 27.6375 20.5256 23.7279 22.0199 20.8171C23.5144 17.9061 28.4086 17.097 32.9518 19.0102C37.4952 20.9234 39.9661 24.8332 38.4715 27.744C36.9768 30.6545 32.0826 31.4634 27.54 29.5512Z" fill="black" fill-opacity="0.1"/>
<path fill-rule="evenodd" clip-rule="evenodd" d="M4.81511 49.0622C3.611 44.281 0.120326 41.2473 -2.98336 42.2842C-6.0869 43.3209 -7.62701 48.0361 -6.42362 52.8169C-5.21978 57.5972 -1.72883 60.6312 1.37453 59.5944C4.47758 58.5574 6.01793 53.8418 4.81511 49.0622Z" fill="black" fill-opacity="0.1"/>
<path fill-rule="evenodd" clip-rule="evenodd" d="M23.5287 44.6504C19.5919 41.7969 18.0651 37.3787 20.1179 34.7816C22.171 32.1852 27.027 32.3935 30.9634 35.2468C34.9 38.1003 36.4269 42.5186 34.3738 45.1152C32.3208 47.712 27.4653 47.5039 23.5287 44.6504Z" fill="black" fill-opacity="0.1"/>
<path fill-rule="evenodd" clip-rule="evenodd" d="M20.4058 47.3257C18.1802 43.0032 14.0446 40.8243 11.1675 42.461C8.28962 44.0971 7.76087 48.9285 9.98583 53.2515C12.2108 57.5746 16.347 59.7527 19.2245 58.116C22.102 56.4794 22.6311 51.6485 20.4058 47.3257Z" fill="black" fill-opacity="0.1"/>
<path fill-rule="evenodd" clip-rule="evenodd" d="M16.3153 30.0057C16.1107 28.5501 16.23 23.0477 17.2479 20.3314C18.2657 17.6153 19.3219 14.0107 15.8594 10.7892C12.3965 7.56678 7.03796 9.51588 4.48934 11.9392C1.94 14.362 -2.70379 19.1192 -6.67678 21.7498C-10.6496 24.3802 -14.8847 28.6078 -13.0133 32.9326C-11.1419 37.2574 -6.90293 37.397 -3.99278 37.0428C-1.08328 36.688 5.17526 37.7257 7.58191 38.6027C9.98785 39.4791 17.4959 38.4214 16.3153 30.0057Z" fill="black" fill-opacity="0.1"/>
<path fill-rule="evenodd" clip-rule="evenodd" d="M18.44 102.745C13.8656 100.906 11.3317 97.037 12.7785 94.1022C14.2254 91.1674 19.1058 90.2787 23.6796 92.1178C28.2535 93.9567 30.7877 97.8258 29.3407 100.761C27.8934 103.695 23.0131 104.583 18.44 102.745Z" fill="black" fill-opacity="0.1"/>
<path fill-rule="evenodd" clip-rule="evenodd" d="M-3.96442 122.624C-5.24616 117.862 -8.78572 114.886 -11.8721 115.973C-14.9584 117.06 -16.4216 121.8 -15.1406 126.56C-13.8591 131.321 -10.3193 134.297 -7.2332 133.21C-4.14743 132.123 -2.684 127.383 -3.96442 122.624Z" fill="black" fill-opacity="0.1"/>
<path fill-rule="evenodd" clip-rule="evenodd" d="M14.6748 117.908C10.692 115.119 9.09355 110.726 11.1038 108.096C13.1145 105.466 17.9732 105.596 21.9555 108.384C25.938 111.173 27.5367 115.566 25.526 118.196C23.5156 120.826 18.6574 120.697 14.6748 117.908Z" fill="black" fill-opacity="0.1"/>
<path fill-rule="evenodd" clip-rule="evenodd" d="M11.5959 120.634C9.3003 116.348 5.12972 114.237 2.27963 115.92C-0.571209 117.603 -1.02128 122.442 1.27373 126.728C3.56871 131.015 7.73983 133.125 10.5904 131.442C13.4409 129.759 13.8913 124.92 11.5959 120.634Z" fill="black" fill-opacity="0.1"/>
<path fill-rule="evenodd" clip-rule="evenodd" d="M7.22419 103.382C6.99594 101.93 7.02565 96.4266 7.99927 93.6942C8.97273 90.9618 9.97016 87.3406 6.45567 84.1758C2.94083 81.0101 -2.38533 83.0461 -4.89418 85.5106C-7.40377 87.9746 -11.9696 92.8067 -15.8992 95.5015C-19.8287 98.1963 -23.9945 102.492 -22.0529 106.786C-20.1114 111.08 -15.8707 111.15 -12.9667 110.749C-10.0634 110.347 -3.78879 111.283 -1.36818 112.12C1.05171 112.957 8.54155 111.778 7.22419 103.382Z" fill="black" fill-opacity="0.1"/>
<path fill-rule="evenodd" clip-rule="evenodd" d="M91.44 94.7454C86.8656 92.9058 84.3317 89.037 85.7785 86.1022C87.2254 83.1674 92.1058 82.2787 96.6796 84.1178C101.253 85.9567 103.788 89.8258 102.341 92.7605C100.893 95.695 96.0131 96.5835 91.44 94.7454Z" fill="black" fill-opacity="0.1"/>
<path fill-rule="evenodd" clip-rule="evenodd" d="M69.0356 114.624C67.7538 109.862 64.2143 106.886 61.1279 107.973C58.0416 109.06 56.5784 113.8 57.8594 118.56C59.1409 123.321 62.6807 126.297 65.7668 125.21C68.8526 124.123 70.316 119.383 69.0356 114.624Z" fill="black" fill-opacity="0.1"/>
<path fill-rule="evenodd" clip-rule="evenodd" d="M87.6748 109.908C83.692 107.119 82.0935 102.726 84.1038 100.096C86.1145 97.4662 90.9732 97.5955 94.9555 100.384C98.938 103.173 100.537 107.566 98.526 110.196C96.5156 112.826 91.6574 112.697 87.6748 109.908Z" fill="black" fill-opacity="0.1"/>
<path fill-rule="evenodd" clip-rule="evenodd" d="M84.5959 112.634C82.3003 108.348 78.1297 106.237 75.2796 107.92C72.4288 109.603 71.9787 114.442 74.2737 118.728C76.5687 123.015 80.7398 125.125 83.5904 123.442C86.4409 121.759 86.8913 116.92 84.5959 112.634Z" fill="black" fill-opacity="0.1"/>
<path fill-rule="evenodd" clip-rule="evenodd" d="M80.2242 95.3824C79.9959 93.9303 80.0257 88.4266 80.9993 85.6942C81.9727 82.9618 82.9702 79.3406 79.4557 76.1758C75.9408 73.0101 70.6147 75.0461 68.1058 77.5106C65.5962 79.9746 61.0304 84.8067 57.1008 87.5015C53.1713 90.1963 49.0055 94.4921 50.9471 98.7859C52.8886 103.08 57.1293 103.15 60.0333 102.749C62.9366 102.347 69.2112 103.283 71.6318 104.12C74.0517 104.957 81.5415 103.778 80.2242 95.3824Z" fill="black" fill-opacity="0.1"/>
<path fill-rule="evenodd" clip-rule="evenodd" d="M71.44 166.745C66.8656 164.906 64.3317 161.037 65.7785 158.102C67.2254 155.167 72.1058 154.279 76.6796 156.118C81.2535 157.957 83.7877 161.826 82.3407 164.761C80.8934 167.695 76.0131 168.583 71.44 166.745Z" fill="black" fill-opacity="0.1"/>
<path fill-rule="evenodd" clip-rule="evenodd" d="M49.0356 186.624C47.7538 181.862 44.2143 178.886 41.1279 179.973C38.0416 181.06 36.5784 185.8 37.8594 190.56C39.1409 195.321 42.6807 198.297 45.7668 197.21C48.8526 196.123 50.316 191.383 49.0356 186.624Z" fill="black" fill-opacity="0.1"/>
<path fill-rule="evenodd" clip-rule="evenodd" d="M67.6748 181.908C63.692 179.119 62.0935 174.726 64.1038 172.096C66.1145 169.466 70.9732 169.596 74.9555 172.384C78.938 175.173 80.5367 179.566 78.526 182.196C76.5156 184.826 71.6574 184.697 67.6748 181.908Z" fill="black" fill-opacity="0.1"/>
<path fill-rule="evenodd" clip-rule="evenodd" d="M64.5959 184.634C62.3003 180.348 58.1297 178.237 55.2796 179.92C52.4288 181.603 51.9787 186.442 54.2737 190.728C56.5687 195.015 60.7398 197.125 63.5904 195.442C66.4409 193.759 66.8913 188.92 64.5959 184.634Z" fill="black" fill-opacity="0.1"/>
<path fill-rule="evenodd" clip-rule="evenodd" d="M60.2242 167.382C59.9959 165.93 60.0257 160.427 60.9993 157.694C61.9727 154.962 62.9702 151.341 59.4557 148.176C55.9408 145.01 50.6147 147.046 48.1058 149.511C45.5962 151.975 41.0304 156.807 37.1008 159.502C33.1713 162.196 29.0055 166.492 30.9471 170.786C32.8886 175.08 37.1293 175.15 40.0333 174.749C42.9366 174.347 49.2112 175.283 51.6318 176.12C54.0517 176.957 61.5415 175.778 60.2242 167.382Z" fill="black" fill-opacity="0.1"/>
</svg>
