<svg width="117" height="154" viewBox="0 0 117 154" fill="none" xmlns="http://www.w3.org/2000/svg">
<path fill-rule="evenodd" clip-rule="evenodd" d="M42.1487 77.3827C42.0078 81.849 39.6657 85.4194 36.9164 85.3599C34.167 85.3003 32.052 81.6323 32.1927 77.1668C32.3332 72.7012 34.6755 69.1304 37.4248 69.1901C40.174 69.2501 42.2888 72.9181 42.1487 77.3827Z" fill="#E3E3E3" fill-opacity="0.5"/>
<path fill-rule="evenodd" clip-rule="evenodd" d="M64.4092 88.1425C60.9967 91.0275 59.6538 95.0809 61.4086 97.1985C63.1633 99.316 67.3512 98.6945 70.7635 95.8104C74.1754 92.926 75.5184 88.8721 73.7638 86.7548C72.009 84.6379 67.8208 85.2592 64.4092 88.1425Z" fill="#E3E3E3" fill-opacity="0.5"/>
<path fill-rule="evenodd" clip-rule="evenodd" d="M55.2815 74.6426C54.2155 78.988 51.187 81.9915 48.5171 81.3518C45.8476 80.7114 44.5476 76.6697 45.6136 72.3247C46.6797 67.9795 49.7082 64.9758 52.3779 65.616C55.0476 66.256 56.3476 70.2973 55.2815 74.6426Z" fill="#E3E3E3" fill-opacity="0.5"/>
<path fill-rule="evenodd" clip-rule="evenodd" d="M58.3362 76.1232C55.5941 79.6583 55.1207 83.8973 57.2808 85.5914C59.4407 87.2863 63.4154 85.7941 66.1581 82.2593C68.901 78.7244 69.3735 74.4853 67.2133 72.7909C65.0531 71.0965 61.0787 72.5882 58.3362 76.1232Z" fill="#E3E3E3" fill-opacity="0.5"/>
<path fill-rule="evenodd" clip-rule="evenodd" d="M45.8927 86.3528C44.8049 87.0991 40.4238 89.1922 37.9719 89.4436C35.5201 89.6951 32.3552 90.2689 30.8554 94.3741C29.3551 98.48 32.5103 102.073 35.1926 103.186C37.8747 104.3 43.0318 106.192 46.3072 108.384C49.5826 110.576 54.1982 112.345 57.0489 109.098C59.8997 105.851 58.7316 102.339 57.5742 100.108C56.4166 97.8771 55.3486 92.3617 55.3153 90.0506C55.2818 87.7402 52.1823 82.0403 45.8927 86.3528Z" fill="#E3E3E3" fill-opacity="0.5"/>
<path fill-rule="evenodd" clip-rule="evenodd" d="M19.7064 20.4085C19.5655 24.8748 17.2233 28.4452 14.474 28.3857C11.7247 28.3261 9.60968 24.6581 9.75035 20.1926C9.89088 15.7271 12.2331 12.1563 14.9824 12.216C17.7316 12.276 19.8464 15.944 19.7064 20.4085Z" fill="#E3E3E3" fill-opacity="0.5"/>
<path fill-rule="evenodd" clip-rule="evenodd" d="M41.9671 31.1684C38.5546 34.0533 37.2117 38.1067 38.9666 40.2243C40.7212 42.3418 44.9091 41.7204 48.3214 38.8362C51.7333 35.9519 53.0763 31.8981 51.3216 29.7808C49.5669 27.6638 45.3786 28.2852 41.9671 31.1684Z" fill="#E3E3E3" fill-opacity="0.5"/>
<path fill-rule="evenodd" clip-rule="evenodd" d="M32.8393 17.6684C31.7733 22.0138 28.7449 25.0174 26.0749 24.3777C23.4054 23.7373 22.1055 19.6956 23.1714 15.3506C24.2375 11.0053 27.266 8.00165 29.9357 8.64183C32.6055 9.28179 33.9055 13.3231 32.8393 17.6684Z" fill="#E3E3E3" fill-opacity="0.5"/>
<path fill-rule="evenodd" clip-rule="evenodd" d="M35.8941 19.1492C33.1519 22.6843 32.6786 26.9233 34.8387 28.6173C36.9986 30.3122 40.9733 28.82 43.716 25.2853C46.4589 21.7504 46.9314 17.5113 44.7711 15.8169C42.611 14.1225 38.6366 15.6142 35.8941 19.1492Z" fill="#E3E3E3" fill-opacity="0.5"/>
<path fill-rule="evenodd" clip-rule="evenodd" d="M23.4506 29.3787C22.3628 30.1249 17.9817 32.2181 15.5297 32.4695C13.0779 32.7209 9.913 33.2947 8.41326 37.4C6.91296 41.5059 10.0682 45.0986 12.7504 46.2117C15.4325 47.3256 20.5896 49.2178 23.8651 51.4097C27.1404 53.6014 31.756 55.3712 34.6068 52.124C37.4576 48.8767 36.2894 45.3652 35.1321 43.1337C33.9744 40.903 32.9064 35.3876 32.8731 33.0764C32.8397 30.766 29.7402 25.0661 23.4506 29.3787Z" fill="#E3E3E3" fill-opacity="0.5"/>
<path fill-rule="evenodd" clip-rule="evenodd" d="M78.295 2.60107C78.1541 7.06738 75.8119 10.6378 73.0626 10.5782C70.3133 10.5187 68.1983 6.85071 68.339 2.3852C68.4795 -2.08038 70.8218 -5.65119 73.5711 -5.59146C76.3202 -5.53144 78.435 -1.86348 78.295 2.60107Z" fill="#E3E3E3" fill-opacity="0.5"/>
<path fill-rule="evenodd" clip-rule="evenodd" d="M100.555 13.3609C97.143 16.2459 95.8001 20.2993 97.5549 22.4169C99.3096 24.5343 103.498 23.9129 106.91 21.0288C110.322 18.1444 111.665 14.0906 109.91 11.9733C108.155 9.85635 103.967 10.4777 100.555 13.3609Z" fill="#E3E3E3" fill-opacity="0.5"/>
<path fill-rule="evenodd" clip-rule="evenodd" d="M91.4277 -0.138973C90.3617 4.20644 87.3332 7.20997 84.6632 6.57028C81.9938 5.92994 80.6938 1.88818 81.7598 -2.4568C82.8259 -6.80208 85.8544 -9.80578 88.5241 -9.1656C91.1939 -8.52565 92.4939 -4.48432 91.4277 -0.138973Z" fill="#E3E3E3" fill-opacity="0.5"/>
<path fill-rule="evenodd" clip-rule="evenodd" d="M94.4825 1.34177C91.7403 4.87689 91.2669 9.11592 93.427 10.81C95.5869 12.5049 99.5616 11.0126 102.304 7.47784C105.047 3.94297 105.52 -0.296179 103.36 -1.99059C101.199 -3.68503 97.225 -2.1933 94.4825 1.34177Z" fill="#E3E3E3" fill-opacity="0.5"/>
<path fill-rule="evenodd" clip-rule="evenodd" d="M82.0389 11.5712C80.9511 12.3175 76.5701 14.4107 74.1181 14.6621C71.6663 14.9135 68.5014 15.4873 67.0016 19.5926C65.5013 23.6985 68.6565 27.2913 71.3388 28.4044C74.0209 29.5183 79.1779 31.4104 82.4534 33.6023C85.7287 35.794 90.3443 37.5638 93.1951 34.3166C96.0459 31.0693 94.8778 27.5578 93.7204 25.3263C92.5628 23.0956 91.4948 17.5801 91.4615 15.269C91.428 12.9586 88.3285 7.25865 82.0389 11.5712Z" fill="#E3E3E3" fill-opacity="0.5"/>
<path fill-rule="evenodd" clip-rule="evenodd" d="M5.82083 105.95C2.40835 108.835 1.06547 112.888 2.82028 115.006C4.57495 117.123 8.76287 116.502 12.1751 113.618C15.587 110.733 16.9301 106.68 15.1754 104.562C13.4206 102.445 9.2324 103.067 5.82083 105.95Z" fill="#E3E3E3" fill-opacity="0.5"/>
<path fill-rule="evenodd" clip-rule="evenodd" d="M-3.30694 92.45C-4.37297 96.7954 -7.40149 99.799 -10.0715 99.1593C-12.7409 98.519 -14.0409 94.4772 -12.9749 90.1322C-11.9088 85.7868 -8.88022 82.7831 -6.21053 83.4233C-3.54075 84.0632 -2.24077 88.1046 -3.30694 92.45Z" fill="#E3E3E3" fill-opacity="0.5"/>
<path fill-rule="evenodd" clip-rule="evenodd" d="M-0.252171 93.9307C-2.99437 97.4659 -3.46774 101.705 -1.30763 103.399C0.852298 105.094 4.827 103.602 7.5697 100.067C10.3126 96.5319 10.7852 92.2928 8.62489 90.5983C6.46474 88.9039 2.49034 90.3956 -0.252171 93.9307Z" fill="#E3E3E3" fill-opacity="0.5"/>
<path fill-rule="evenodd" clip-rule="evenodd" d="M-12.6957 104.16C-13.7835 104.907 -18.1646 107 -20.6165 107.251C-23.0683 107.503 -26.2333 108.076 -27.733 112.182C-29.2333 116.288 -26.0781 119.88 -23.3958 120.993C-20.7138 122.107 -15.5567 123.999 -12.2812 126.191C-9.00588 128.383 -4.39028 130.153 -1.53948 126.906C1.31132 123.658 0.143193 120.147 -1.01418 117.915C-2.17183 115.685 -3.23984 110.169 -3.27311 107.858C-3.30659 105.548 -6.40609 99.8477 -12.6957 104.16Z" fill="#E3E3E3" fill-opacity="0.5"/>
</svg>
