<svg width="107" height="189" viewBox="0 0 107 189" fill="none" xmlns="http://www.w3.org/2000/svg">
<path fill-rule="evenodd" clip-rule="evenodd" d="M65.5555 111.779C67.716 116.427 67.0561 121.248 64.0817 122.549C61.1072 123.85 56.9446 121.138 54.7842 116.491C52.6237 111.843 53.2835 107.023 56.258 105.722C59.2325 104.421 63.395 107.133 65.5555 111.779V111.779Z" fill="black" fill-opacity="0.1"/>
<path fill-rule="evenodd" clip-rule="evenodd" d="M94.9573 111.779C92.7967 116.427 93.4567 121.248 96.4313 122.549C99.4058 123.85 103.568 121.138 105.729 116.491C107.889 111.843 107.229 107.023 104.255 105.722C101.281 104.421 97.1179 107.133 94.9573 111.779V111.779Z" fill="black" fill-opacity="0.1"/>
<path fill-rule="evenodd" clip-rule="evenodd" d="M78.1982 102.463C79.3057 107.446 77.6176 112.025 74.4279 112.692C71.2384 113.358 67.7549 109.859 66.6476 104.877C65.5403 99.8948 67.2284 95.3152 70.4181 94.6486C73.6077 93.9818 77.091 97.4804 78.1982 102.463V102.463Z" fill="black" fill-opacity="0.1"/>
<path fill-rule="evenodd" clip-rule="evenodd" d="M82.2353 102.468C81.1288 107.45 82.8157 112.03 86.0051 112.696C89.1948 113.364 92.6781 109.865 93.7853 104.882C94.8927 99.8996 93.2048 95.32 90.015 94.6535C86.8254 93.9868 83.3421 97.4852 82.2353 102.468V102.468Z" fill="black" fill-opacity="0.1"/>
<path fill-rule="evenodd" clip-rule="evenodd" d="M74.2063 119.119C73.4278 120.423 69.8204 124.739 67.3253 126.212C64.8304 127.684 61.7387 129.841 62.2575 134.792C62.7761 139.744 68.0135 141.864 71.4614 141.676C74.9094 141.489 81.4101 140.873 86.0514 141.497C90.6924 142.121 96.55 141.648 97.9218 136.907C99.2935 132.166 96.2256 129.145 93.8316 127.431C91.4377 125.718 87.44 120.593 86.2083 118.241C84.9768 115.889 78.7085 111.582 74.2063 119.119V119.119Z" fill="black" fill-opacity="0.1"/>
<path fill-rule="evenodd" clip-rule="evenodd" d="M12.0425 64.4955C14.2031 69.1437 13.5431 73.9641 10.5687 75.2653C7.59426 76.5665 3.43162 73.8545 1.27128 69.2072C-0.889238 64.56 -0.229404 59.7391 2.74508 58.4381C5.71956 57.1374 9.88202 59.8496 12.0425 64.4955V64.4955Z" fill="black" fill-opacity="0.1"/>
<path fill-rule="evenodd" clip-rule="evenodd" d="M41.4444 64.4955C39.2838 69.1437 39.9437 73.9641 42.9184 75.2653C45.8929 76.5665 50.0551 73.8545 52.2159 69.2072C54.3762 64.56 53.7163 59.7391 50.7419 58.4381C47.7676 57.1374 43.6049 59.8496 41.4444 64.4955V64.4955Z" fill="black" fill-opacity="0.1"/>
<path fill-rule="evenodd" clip-rule="evenodd" d="M24.6853 55.1794C25.7928 60.162 24.1046 64.7414 20.9149 65.4086C17.7255 66.0749 14.242 62.5758 13.1347 57.5937C12.0274 52.6112 13.7155 48.0316 16.9051 47.3651C20.0947 46.6982 23.578 50.1968 24.6853 55.1794V55.1794Z" fill="black" fill-opacity="0.1"/>
<path fill-rule="evenodd" clip-rule="evenodd" d="M28.7223 55.1842C27.6158 60.1667 29.3028 64.7465 32.4922 65.4128C35.6819 66.08 39.1652 62.581 40.2724 57.5986C41.3798 52.616 39.6919 48.0364 36.5021 47.3699C33.3124 46.7033 29.8292 50.2016 28.7223 55.1842V55.1842Z" fill="black" fill-opacity="0.1"/>
<path fill-rule="evenodd" clip-rule="evenodd" d="M20.6933 71.8356C19.9149 73.1395 16.3074 77.4559 13.8123 78.9285C11.3174 80.4011 8.22577 82.5575 8.7446 87.5088C9.26313 92.4611 14.5006 94.5806 17.9484 94.3926C21.3965 94.2055 27.8972 93.5899 32.5384 94.2138C37.1794 94.8377 43.0371 94.3649 44.4088 89.6237C45.7806 84.8825 42.7127 81.8617 40.3187 80.1477C37.9248 78.4346 33.927 73.31 32.6954 70.9574C31.4639 68.6056 25.1955 64.2985 20.6933 71.8356V71.8356Z" fill="black" fill-opacity="0.1"/>
<path fill-rule="evenodd" clip-rule="evenodd" d="M65.5555 17.2118C67.716 21.86 67.0561 26.6805 64.0817 27.9816C61.1072 29.2828 56.9446 26.5708 54.7842 21.9236C52.6237 17.2763 53.2835 12.4554 56.258 11.1544C59.2325 9.85373 63.395 12.5659 65.5555 17.2118V17.2118Z" fill="black" fill-opacity="0.1"/>
<path fill-rule="evenodd" clip-rule="evenodd" d="M94.9573 17.2118C92.7967 21.86 93.4567 26.6805 96.4313 27.9816C99.4058 29.2828 103.568 26.5708 105.729 21.9236C107.889 17.2763 107.229 12.4554 104.255 11.1544C101.281 9.85373 97.1179 12.5659 94.9573 17.2118V17.2118Z" fill="black" fill-opacity="0.1"/>
<path fill-rule="evenodd" clip-rule="evenodd" d="M78.1982 7.89588C79.3057 12.8785 77.6176 17.4579 74.4279 18.1251C71.2384 18.7914 67.7549 15.2923 66.6476 10.3102C65.5403 5.32767 67.2284 0.748034 70.4181 0.0814918C73.6077 -0.585327 77.091 2.91326 78.1982 7.89588V7.89588Z" fill="black" fill-opacity="0.1"/>
<path fill-rule="evenodd" clip-rule="evenodd" d="M82.2353 7.90067C81.1288 12.8832 82.8157 17.4631 86.0051 18.1293C89.1948 18.7965 92.6781 15.2975 93.7853 10.3151C94.8927 5.33248 93.2048 0.752874 90.015 0.0863359C86.8254 -0.580295 83.3421 2.91808 82.2353 7.90067V7.90067Z" fill="black" fill-opacity="0.1"/>
<path fill-rule="evenodd" clip-rule="evenodd" d="M74.2063 24.5519C73.4278 25.8559 69.8204 30.1723 67.3253 31.6449C64.8304 33.1175 61.7387 35.2738 62.2575 40.2252C62.7761 45.1775 68.0135 47.297 71.4614 47.109C74.9094 46.9219 81.4101 46.3063 86.0514 46.9302C90.6924 47.5541 96.55 47.0813 97.9218 42.3401C99.2935 37.5989 96.2256 34.5781 93.8316 32.8641C91.4377 31.1509 87.44 26.0263 86.2083 23.6737C84.9768 21.322 78.7085 17.0147 74.2063 24.5519V24.5519Z" fill="black" fill-opacity="0.1"/>
<path fill-rule="evenodd" clip-rule="evenodd" d="M12.0425 159.063C14.2031 163.711 13.5431 168.532 10.5687 169.833C7.59426 171.134 3.43162 168.422 1.27128 163.775C-0.889238 159.128 -0.229404 154.307 2.74508 153.006C5.71956 151.705 9.88202 154.417 12.0425 159.063V159.063Z" fill="black" fill-opacity="0.1"/>
<path fill-rule="evenodd" clip-rule="evenodd" d="M41.4444 159.063C39.2838 163.711 39.9437 168.532 42.9184 169.833C45.8929 171.134 50.0551 168.422 52.2159 163.775C54.3762 159.128 53.7163 154.307 50.7419 153.006C47.7676 151.705 43.6049 154.417 41.4444 159.063V159.063Z" fill="black" fill-opacity="0.1"/>
<path fill-rule="evenodd" clip-rule="evenodd" d="M24.6853 149.747C25.7928 154.73 24.1046 159.309 20.9149 159.976C17.7255 160.643 14.242 157.144 13.1347 152.161C12.0274 147.179 13.7155 142.599 16.9051 141.933C20.0947 141.266 23.578 144.764 24.6853 149.747V149.747Z" fill="black" fill-opacity="0.1"/>
<path fill-rule="evenodd" clip-rule="evenodd" d="M28.7223 149.752C27.6158 154.734 29.3028 159.314 32.4922 159.98C35.6819 160.647 39.1652 157.148 40.2724 152.166C41.3798 147.183 39.6919 142.604 36.5021 141.937C33.3124 141.271 29.8292 144.769 28.7223 149.752V149.752Z" fill="black" fill-opacity="0.1"/>
<path fill-rule="evenodd" clip-rule="evenodd" d="M20.6933 166.403C19.9149 167.707 16.3074 172.023 13.8123 173.496C11.3174 174.969 8.22577 177.125 8.7446 182.076C9.26313 187.028 14.5006 189.148 17.9484 188.96C21.3965 188.773 27.8972 188.157 32.5384 188.781C37.1794 189.405 43.0371 188.932 44.4088 184.191C45.7806 179.45 42.7127 176.429 40.3187 174.715C37.9248 173.002 33.927 167.877 32.6954 165.525C31.4639 163.173 25.1955 158.866 20.6933 166.403V166.403Z" fill="black" fill-opacity="0.1"/>
</svg>
