<svg width="32" height="28" viewBox="0 0 32 28" fill="none" xmlns="http://www.w3.org/2000/svg">
<path fill-rule="evenodd" clip-rule="evenodd" d="M7.0767 10.2214C8.34632 12.9818 7.95852 15.8445 6.21064 16.6172C4.46271 17.3899 2.01656 15.7794 0.74706 13.0196C-0.522554 10.2598 -0.134807 7.39678 1.61312 6.62417C3.36106 5.85177 5.80709 7.4624 7.0767 10.2214Z" fill="#FFA934"/>
<path fill-rule="evenodd" clip-rule="evenodd" d="M24.354 10.2214C23.0843 12.9818 23.4721 15.8445 25.2202 16.6172C26.9681 17.3899 29.414 15.7794 30.6838 13.0196C31.9533 10.2598 31.5655 7.39678 29.8176 6.62417C28.0698 5.85177 25.6236 7.4624 24.354 10.2214Z" fill="#FFA934"/>
<path fill-rule="evenodd" clip-rule="evenodd" d="M14.5058 4.68905C15.1566 7.64803 14.1646 10.3676 12.2902 10.7638C10.416 11.1595 8.36892 9.08152 7.71822 6.12282C7.06753 3.16389 8.05951 0.444228 9.93388 0.0483948C11.8082 -0.347603 13.8552 1.73007 14.5058 4.68905Z" fill="#FFA934"/>
<path fill-rule="evenodd" clip-rule="evenodd" d="M16.8782 4.69181C16.228 7.65071 17.2193 10.3705 19.0936 10.7662C20.9679 11.1624 23.0149 9.08447 23.6655 6.12562C24.3163 3.16666 23.3244 0.44701 21.4499 0.0511794C19.5756 -0.344706 17.5287 1.73284 16.8782 4.69181Z" fill="#FFA934"/>
<path fill-rule="evenodd" clip-rule="evenodd" d="M12.1599 14.5804C11.7024 15.3548 9.58258 17.9182 8.11634 18.7927C6.65023 19.6672 4.83345 20.9478 5.13833 23.8882C5.44304 26.8291 8.52078 28.0878 10.5469 27.9762C12.5731 27.8651 16.3932 27.4995 19.1206 27.87C21.8478 28.2405 25.29 27.9598 26.0961 25.1441C26.9022 22.3285 25.0994 20.5346 23.6926 19.5167C22.2858 18.4993 19.9366 15.456 19.2128 14.0589C18.4891 12.6623 14.8056 10.1044 12.1599 14.5804Z" fill="#FFA934"/>
</svg>
