<svg width="33" height="27" viewBox="0 0 33 27" fill="none" xmlns="http://www.w3.org/2000/svg">
<g clip-path="url(#clip0_272_2)">
<path fill-rule="evenodd" clip-rule="evenodd" d="M7.74648 10.3521C9.04148 12.9872 8.60708 15.7665 6.77638 16.5615C4.94568 17.3565 2.41178 15.8655 1.11688 13.2309C-0.178117 10.5962 0.256282 7.81666 2.08698 7.02176C3.91778 6.22706 6.45148 7.71816 7.74648 10.3521Z" fill="#E8F6EF"/>
<path fill-rule="evenodd" clip-rule="evenodd" d="M25.7626 9.88107C24.4097 12.5855 24.7841 15.3436 26.5988 16.0433C28.4134 16.743 30.9807 15.1187 32.3337 12.4149C33.6863 9.71107 33.3119 6.95257 31.4974 6.25297C29.6829 5.55357 27.1153 7.17797 25.7626 9.88107Z" fill="#E8F6EF"/>
<path fill-rule="evenodd" clip-rule="evenodd" d="M15.5517 4.79858C16.1993 7.64268 15.1364 10.2999 13.1777 10.7342C11.2192 11.168 9.10642 9.21408 8.45882 6.37018C7.81132 3.52618 8.87422 0.868777 10.8328 0.434877C12.7914 0.000776686 14.9041 1.95448 15.5517 4.79858Z" fill="#E8F6EF"/>
<path fill-rule="evenodd" clip-rule="evenodd" d="M18.0251 4.73676C17.3161 7.61616 18.3214 10.2197 20.2716 10.5513C22.222 10.8835 24.3782 8.81796 25.0876 5.93846C25.7972 3.05896 24.7914 0.455659 22.8409 0.123859C20.8905 -0.207941 18.7344 1.85716 18.0251 4.73676Z" fill="#E8F6EF"/>
<path fill-rule="evenodd" clip-rule="evenodd" d="M13.0019 14.4293C12.5168 15.1907 10.2794 17.7277 8.74136 18.6134C7.20336 19.4992 5.29546 20.7872 5.58266 23.6228C5.86956 26.4589 9.06576 27.5924 11.1797 27.4292C13.2937 27.2665 17.2809 26.8089 20.121 27.0929C22.961 27.3769 26.5533 27.0115 27.4233 24.2664C28.2934 21.5212 26.4323 19.8353 24.976 18.8892C23.5197 17.9436 21.1019 15.0642 20.3618 13.7327C19.6218 12.4016 15.8076 10.0281 13.0019 14.4293Z" fill="#E8F6EF"/>
</g>
<defs>
<clipPath id="clip0_272_2">
<rect width="33" height="27" fill="white"/>
</clipPath>
</defs>
</svg>
