<svg width="154" height="157" viewBox="0 0 154 157" fill="none" xmlns="http://www.w3.org/2000/svg">
<path fill-rule="evenodd" clip-rule="evenodd" d="M79.149 112.383C79.0081 116.849 76.6659 120.419 73.9166 120.36C71.1672 120.3 69.0522 116.632 69.1929 112.167C69.3335 107.701 71.6758 104.13 74.4251 104.19C77.1742 104.25 79.289 107.918 79.149 112.383Z" fill="#E3E3E3" fill-opacity="0.5"/>
<path fill-rule="evenodd" clip-rule="evenodd" d="M101.409 123.143C97.997 126.028 96.6541 130.081 98.4089 132.199C100.164 134.316 104.351 133.695 107.764 130.81C111.176 127.926 112.519 123.872 110.764 121.755C109.009 119.638 104.821 120.259 101.409 123.143Z" fill="#E3E3E3" fill-opacity="0.5"/>
<path fill-rule="evenodd" clip-rule="evenodd" d="M92.2817 109.643C91.2158 113.988 88.1873 116.991 85.5173 116.352C82.8478 115.711 81.5479 111.67 82.6138 107.325C83.6799 102.979 86.7084 99.9758 89.3781 100.616C92.0479 101.256 93.3479 105.297 92.2817 109.643Z" fill="#E3E3E3" fill-opacity="0.5"/>
<path fill-rule="evenodd" clip-rule="evenodd" d="M95.3365 111.123C92.5943 114.658 92.1209 118.897 94.2811 120.591C96.441 122.286 100.416 120.794 103.158 117.259C105.901 113.724 106.374 109.485 104.214 107.791C102.053 106.096 98.079 107.588 95.3365 111.123Z" fill="#E3E3E3" fill-opacity="0.5"/>
<path fill-rule="evenodd" clip-rule="evenodd" d="M82.8929 121.353C81.8052 122.099 77.4241 124.192 74.9721 124.444C72.5203 124.695 69.3554 125.269 67.8557 129.374C66.3554 133.48 69.5106 137.073 72.1929 138.186C74.8749 139.3 80.032 141.192 83.3075 143.384C86.5828 145.576 91.1984 147.345 94.0492 144.098C96.9 140.851 95.7318 137.339 94.5745 135.108C93.4168 132.877 92.3488 127.362 92.3155 125.051C92.282 122.74 89.1825 117.04 82.8929 121.353Z" fill="#E3E3E3" fill-opacity="0.5"/>
<path fill-rule="evenodd" clip-rule="evenodd" d="M56.7066 55.4085C56.5657 59.8748 54.2236 63.4452 51.4743 63.3857C48.7249 63.3261 46.6099 59.6581 46.7506 55.1926C46.8911 50.7271 49.2334 47.1563 51.9827 47.216C54.7318 47.276 56.8466 50.944 56.7066 55.4085Z" fill="#E3E3E3" fill-opacity="0.5"/>
<path fill-rule="evenodd" clip-rule="evenodd" d="M78.9673 66.1684C75.5549 69.0533 74.212 73.1067 75.9668 75.2243C77.7215 77.3417 81.9094 76.7203 85.3217 73.8362C88.7335 70.9518 90.0765 66.8981 88.3219 64.7808C86.5671 62.6638 82.3789 63.2851 78.9673 66.1684Z" fill="#E3E3E3" fill-opacity="0.5"/>
<path fill-rule="evenodd" clip-rule="evenodd" d="M69.8396 52.6684C68.7736 57.0138 65.7451 60.0174 63.0751 59.3777C60.4057 58.7373 59.1057 54.6956 60.1717 50.3506C61.2378 46.0053 64.2663 43.0017 66.936 43.6418C69.6057 44.2818 70.9057 48.3231 69.8396 52.6684Z" fill="#E3E3E3" fill-opacity="0.5"/>
<path fill-rule="evenodd" clip-rule="evenodd" d="M72.8943 54.1492C70.1522 57.6843 69.6788 61.9233 71.8389 63.6173C73.9989 65.3122 77.9736 63.82 80.7162 60.2853C83.4591 56.7504 83.9316 52.5113 81.7714 50.8169C79.6112 49.1225 75.6368 50.6142 72.8943 54.1492Z" fill="#E3E3E3" fill-opacity="0.5"/>
<path fill-rule="evenodd" clip-rule="evenodd" d="M60.4508 64.3787C59.363 65.1249 54.9819 67.2181 52.53 67.4695C50.0782 67.7209 46.9132 68.2947 45.4135 72.4C43.9132 76.5059 47.0684 80.0986 49.7507 81.2117C52.4327 82.3256 57.5898 84.2178 60.8653 86.4097C64.1406 88.6014 68.7562 90.3712 71.607 87.124C74.4578 83.8767 73.2897 80.3652 72.1323 78.1337C70.9747 75.903 69.9066 70.3876 69.8734 68.0764C69.8399 65.766 66.7404 60.0661 60.4508 64.3787Z" fill="#E3E3E3" fill-opacity="0.5"/>
<path fill-rule="evenodd" clip-rule="evenodd" d="M115.295 37.6011C115.154 42.0674 112.812 45.6378 110.063 45.5783C107.314 45.5187 105.199 41.8507 105.339 37.3852C105.48 32.9196 107.822 29.3488 110.571 29.4086C113.32 29.4686 115.435 33.1365 115.295 37.6011Z" fill="#E3E3E3" fill-opacity="0.5"/>
<path fill-rule="evenodd" clip-rule="evenodd" d="M137.556 48.3609C134.143 51.2459 132.8 55.2993 134.555 57.4169C136.31 59.5343 140.498 58.9129 143.91 56.0288C147.322 53.1444 148.665 49.0906 146.91 46.9733C145.156 44.8563 140.967 45.4777 137.556 48.3609Z" fill="#E3E3E3" fill-opacity="0.5"/>
<path fill-rule="evenodd" clip-rule="evenodd" d="M128.428 34.861C127.362 39.2065 124.333 42.21 121.663 41.5703C118.994 40.93 117.694 36.8882 118.76 32.5432C119.826 28.1979 122.855 25.1942 125.524 25.8344C128.194 26.4744 129.494 30.5157 128.428 34.861Z" fill="#E3E3E3" fill-opacity="0.5"/>
<path fill-rule="evenodd" clip-rule="evenodd" d="M131.483 36.3418C128.741 39.8769 128.267 44.1159 130.427 45.81C132.587 47.5049 136.562 46.0127 139.305 42.4779C142.047 38.943 142.52 34.7039 140.36 33.0094C138.2 31.315 134.225 32.8067 131.483 36.3418Z" fill="#E3E3E3" fill-opacity="0.5"/>
<path fill-rule="evenodd" clip-rule="evenodd" d="M119.039 46.5713C117.951 47.3175 113.57 49.4107 111.118 49.6621C108.667 49.9136 105.502 50.4874 104.002 54.5926C102.502 58.6985 105.657 62.2913 108.339 63.4044C111.021 64.5183 116.178 66.4105 119.454 68.6023C122.729 70.7941 127.345 72.5639 130.195 69.3166C133.046 66.0693 131.878 62.5579 130.721 60.3263C129.563 58.0956 128.495 52.5802 128.462 50.269C128.428 47.9586 125.329 42.2587 119.039 46.5713Z" fill="#E3E3E3" fill-opacity="0.5"/>
<path fill-rule="evenodd" clip-rule="evenodd" d="M20.5604 130.19C20.4195 134.656 18.0773 138.227 15.328 138.167C12.5786 138.108 10.4636 134.44 10.6043 129.974C10.7449 125.509 13.0871 121.938 15.8364 121.998C18.5856 122.058 20.7004 125.726 20.5604 130.19Z" fill="#E3E3E3" fill-opacity="0.5"/>
<path fill-rule="evenodd" clip-rule="evenodd" d="M42.8211 140.95C39.4086 143.835 38.0657 147.888 39.8205 150.006C41.5752 152.123 45.7631 151.502 49.1754 148.618C52.5872 145.733 53.9303 141.68 52.1756 139.562C50.4209 137.445 46.2326 138.067 42.8211 140.95Z" fill="#E3E3E3" fill-opacity="0.5"/>
<path fill-rule="evenodd" clip-rule="evenodd" d="M33.6933 127.45C32.6273 131.795 29.5988 134.799 26.9288 134.159C24.2593 133.519 22.9594 129.477 24.0254 125.132C25.0915 120.787 28.12 117.783 30.7897 118.423C33.4595 119.063 34.7595 123.105 33.6933 127.45Z" fill="#E3E3E3" fill-opacity="0.5"/>
<path fill-rule="evenodd" clip-rule="evenodd" d="M36.7481 128.931C34.0059 132.466 33.5325 136.705 35.6926 138.399C37.8525 140.094 41.8272 138.602 44.5699 135.067C47.3129 131.532 47.7854 127.293 45.6251 125.598C43.465 123.904 39.4906 125.396 36.7481 128.931Z" fill="#E3E3E3" fill-opacity="0.5"/>
<path fill-rule="evenodd" clip-rule="evenodd" d="M24.3046 139.16C23.2168 139.907 18.8357 142 16.3837 142.251C13.9319 142.503 10.767 143.076 9.26725 147.182C7.76695 151.288 10.9221 154.88 13.6044 155.993C16.2865 157.107 21.4436 158.999 24.7191 161.191C27.9944 163.383 32.61 165.153 35.4608 161.906C38.3116 158.658 37.1434 155.147 35.9861 152.915C34.8284 150.685 33.7604 145.169 33.7271 142.858C33.6937 140.548 30.5942 134.848 24.3046 139.16Z" fill="#E3E3E3" fill-opacity="0.5"/>
</svg>
