<svg viewBox="0 0 90 156" fill="none"
  xmlns="http://www.w3.org/2000/svg">
  <path fill-rule="evenodd" clip-rule="evenodd" d="M55.1268 91.9412C56.9436 95.748 56.3887 99.6959 53.8875 100.762C51.3862 101.827 47.8857 99.6061 46.069 95.8C44.2522 91.994 44.8071 88.0457 47.3084 86.9802C49.8097 85.915 53.31 88.1362 55.1268 91.9412Z" fill="#FDF3EC" fill-opacity="0.4"/>
  <path fill-rule="evenodd" clip-rule="evenodd" d="M79.8515 91.9412C78.0346 95.748 78.5896 99.6959 81.091 100.762C83.5923 101.827 87.0925 99.6061 88.9095 95.8C90.7261 91.994 90.1712 88.0457 87.6699 86.9802C85.1688 85.915 81.6684 88.1362 79.8515 91.9412Z" fill="#FDF3EC" fill-opacity="0.4"/>
  <path fill-rule="evenodd" clip-rule="evenodd" d="M65.7585 84.3114C66.6898 88.3921 65.2703 92.1426 62.588 92.689C59.9059 93.2346 56.9766 90.369 56.0454 86.2887C55.1143 82.2081 56.5338 78.4575 59.216 77.9116C61.8982 77.3655 64.8274 80.2308 65.7585 84.3114Z" fill="#FDF3EC" fill-opacity="0.4"/>
  <path fill-rule="evenodd" clip-rule="evenodd" d="M69.1531 84.3149C68.2226 88.3956 69.6411 92.1466 72.3232 92.6922C75.0055 93.2387 77.9347 90.3729 78.8657 86.2923C79.797 82.2116 78.3776 78.4609 75.6952 77.915C73.013 77.369 70.0838 80.2342 69.1531 84.3149Z" fill="#FDF3EC" fill-opacity="0.4"/>
  <path fill-rule="evenodd" clip-rule="evenodd" d="M62.4014 97.9526C61.7468 99.0205 58.7132 102.556 56.615 103.762C54.517 104.968 51.9172 106.734 52.3535 110.789C52.7895 114.845 57.1938 116.581 60.0932 116.427C62.9927 116.274 68.4593 115.769 72.3622 116.28C76.2649 116.791 81.1907 116.404 82.3442 112.521C83.4977 108.638 80.9179 106.164 78.9047 104.76C76.8917 103.357 73.5299 99.1601 72.4941 97.2333C71.4585 95.3073 66.1874 91.7797 62.4014 97.9526Z" fill="#FDF3EC" fill-opacity="0.4"/>
  <path fill-rule="evenodd" clip-rule="evenodd" d="M10.1268 53.216C11.9436 57.0228 11.3887 60.9708 8.88746 62.0365C6.38616 63.1021 2.88571 60.881 1.06905 57.0749C-0.747778 53.2688 -0.19291 49.3205 2.30839 48.255C4.80969 47.1898 8.30998 49.411 10.1268 53.216Z" fill="#FDF3EC" fill-opacity="0.4"/>
  <path fill-rule="evenodd" clip-rule="evenodd" d="M34.8515 53.216C33.0346 57.0228 33.5896 60.9708 36.091 62.0365C38.5923 63.1021 42.0925 60.881 43.9095 57.0749C45.7261 53.2688 45.1712 49.3205 42.6699 48.255C40.1688 47.1898 36.6684 49.411 34.8515 53.216Z" fill="#FDF3EC" fill-opacity="0.4"/>
  <path fill-rule="evenodd" clip-rule="evenodd" d="M20.7585 45.5863C21.6898 49.667 20.2703 53.4175 17.588 53.9639C14.9059 54.5095 11.9766 51.6439 11.0454 47.5636C10.1143 43.483 11.5338 39.7324 14.216 39.1865C16.8982 38.6404 19.8274 41.5057 20.7585 45.5863Z" fill="#FDF3EC" fill-opacity="0.4"/>
  <path fill-rule="evenodd" clip-rule="evenodd" d="M24.1531 45.5898C23.2226 49.6704 24.6411 53.4213 27.3232 53.967C30.0055 54.5134 32.9347 51.6477 33.8657 47.5672C34.797 43.4864 33.3776 39.7358 30.6952 39.1899C28.013 38.6439 25.0838 41.5091 24.1531 45.5898Z" fill="#FDF3EC" fill-opacity="0.4"/>
  <path fill-rule="evenodd" clip-rule="evenodd" d="M17.4014 59.2275C16.7468 60.2954 13.7132 63.8305 11.615 65.0366C9.51701 66.2426 6.91719 68.0087 7.35348 72.0638C7.78952 76.1197 12.1938 77.8556 15.0932 77.7016C17.9927 77.5484 23.4593 77.0442 27.3622 77.5552C31.2649 78.0661 36.1907 77.6789 37.3442 73.7959C38.4977 69.9128 35.9179 67.4389 33.9047 66.0351C31.8917 64.632 28.5299 60.435 27.4941 58.5082C26.4585 56.5822 21.1874 53.0546 17.4014 59.2275Z" fill="#FDF3EC" fill-opacity="0.4"/>
  <path fill-rule="evenodd" clip-rule="evenodd" d="M55.1268 14.4909C56.9436 18.2977 56.3887 22.2457 53.8875 23.3114C51.3862 24.377 47.8857 22.1559 46.069 18.3498C44.2522 14.5437 44.8071 10.5954 47.3084 9.52988C49.8097 8.46466 53.31 10.6859 55.1268 14.4909Z" fill="#FDF3EC" fill-opacity="0.4"/>
  <path fill-rule="evenodd" clip-rule="evenodd" d="M79.8515 14.4909C78.0346 18.2977 78.5896 22.2457 81.091 23.3114C83.5923 24.377 87.0925 22.1559 88.9095 18.3498C90.7261 14.5437 90.1712 10.5954 87.6699 9.52988C85.1688 8.46466 81.6684 10.6859 79.8515 14.4909Z" fill="#FDF3EC" fill-opacity="0.4"/>
  <path fill-rule="evenodd" clip-rule="evenodd" d="M65.7585 6.86116C66.6898 10.9419 65.2703 14.6924 62.588 15.2388C59.9059 15.7845 56.9766 12.9188 56.0454 8.83845C55.1143 4.75782 56.5338 1.00716 59.216 0.461272C61.8982 -0.0848442 64.8274 2.78046 65.7585 6.86116Z" fill="#FDF3EC" fill-opacity="0.4"/>
  <path fill-rule="evenodd" clip-rule="evenodd" d="M69.1531 6.86464C68.2226 10.9453 69.6411 14.6961 72.3232 15.2418C75.0055 15.7882 77.9347 12.9225 78.8657 8.842C79.797 4.76132 78.3776 1.01067 75.6952 0.464781C73.013 -0.0811828 70.0838 2.78395 69.1531 6.86464Z" fill="#FDF3EC" fill-opacity="0.4"/>
  <path fill-rule="evenodd" clip-rule="evenodd" d="M62.4014 20.5023C61.7468 21.5702 58.7132 25.1053 56.615 26.3114C54.517 27.5175 51.9172 29.2835 52.3535 33.3387C52.7895 37.3946 57.1938 39.1305 60.0932 38.9765C62.9927 38.8233 68.4593 38.3191 72.3622 38.8301C76.2649 39.341 81.1907 38.9538 82.3442 35.0708C83.4977 31.1877 80.9179 28.7137 78.9047 27.3099C76.8917 25.9069 73.5299 21.7098 72.4941 19.783C71.4585 17.8569 66.1874 14.3294 62.4014 20.5023Z" fill="#FDF3EC" fill-opacity="0.4"/>
  <path fill-rule="evenodd" clip-rule="evenodd" d="M10.1268 130.666C11.9436 134.473 11.3887 138.421 8.88746 139.487C6.38616 140.552 2.88571 138.331 1.06905 134.525C-0.747778 130.719 -0.19291 126.771 2.30839 125.705C4.80969 124.64 8.30998 126.861 10.1268 130.666Z" fill="#FDF3EC" fill-opacity="0.4"/>
  <path fill-rule="evenodd" clip-rule="evenodd" d="M34.8515 130.666C33.0346 134.473 33.5896 138.421 36.091 139.487C38.5923 140.552 42.0925 138.331 43.9095 134.525C45.7261 130.719 45.1712 126.771 42.6699 125.705C40.1688 124.64 36.6684 126.861 34.8515 130.666Z" fill="#FDF3EC" fill-opacity="0.4"/>
  <path fill-rule="evenodd" clip-rule="evenodd" d="M20.7585 123.037C21.6898 127.117 20.2703 130.868 17.588 131.414C14.9059 131.96 11.9766 129.094 11.0454 125.014C10.1143 120.933 11.5338 117.183 14.216 116.637C16.8982 116.091 19.8274 118.956 20.7585 123.037Z" fill="#FDF3EC" fill-opacity="0.4"/>
  <path fill-rule="evenodd" clip-rule="evenodd" d="M24.1531 123.04C23.2226 127.121 24.6411 130.872 27.3232 131.417C30.0055 131.964 32.9347 129.098 33.8657 125.017C34.797 120.937 33.3776 117.186 30.6952 116.64C28.013 116.094 25.0838 118.959 24.1531 123.04Z" fill="#FDF3EC" fill-opacity="0.4"/>
  <path fill-rule="evenodd" clip-rule="evenodd" d="M17.4014 136.678C16.7468 137.746 13.7132 141.281 11.615 142.487C9.51701 143.693 6.91719 145.459 7.35348 149.514C7.78952 153.57 12.1938 155.306 15.0932 155.152C17.9927 154.999 23.4593 154.494 27.3622 155.005C31.2649 155.516 36.1907 155.129 37.3442 151.246C38.4977 147.363 35.9179 144.889 33.9047 143.485C31.8917 142.082 28.5299 137.885 27.4941 135.959C26.4585 134.032 21.1874 130.505 17.4014 136.678Z" fill="#FDF3EC" fill-opacity="0.4"/>
</svg>
